# xmcd CD database file
#
# Track frame offsets:
#	150
#	20277
#	45897
#	67745
#	95090
#	112415
#	135317
#	161170
#
# Disc length: 2489 seconds
#
# Revision: 0
# Processed by: cddbd v1.5.1PL0 Copyright (c) Steve Scherf et al.
# Submitted via: CDex 1.51
#
DISCID=6109b708
DTITLE=CONDITION GREEN - LIFE OF CHANGE
DYEAR=1978
DGENRE=Rock
TTITLE0=Heart Taker
TTITLE1=Child Of Innocent
TTITLE2=Heart Breaker
TTITLE3=Suger Baby Good Time
TTITLE4=Life Of Change
TTITLE5=Trick
TTITLE6=Akiyuma
TTITLE7=Nature's Calling
EXTD=YEAR: 1978
EXTT0=
EXTT1=
EXTT2=
EXTT3=
EXTT4=
EXTT5=
EXTT6=
EXTT7=
PLAYORDER=
